# xmcd
#
# Track frame offsets:
#	150
#	18615
#	34396
#	56300
#	78489
#	95190
#	114941
#	128352
#	146977
#	162003
#	182543
#	198070
#	219327
#	233591
#
# Disc length: 3359 seconds
#
# Revision: 2
# Processed by: cddbd v1.5.2PL0 Copyright (c) Steve Scherf et al.
# Submitted via: EasyCDDAExtractor 11.0.2.1
#
DISCID=b20d1d0e
DTITLE=Rick and Renner - Mil Vezes Cantarei
DYEAR=1998
DGENRE=Sertanejo
TTITLE0=Goodbye My Love
TTITLE1=Enrosca, Enrosca
TTITLE2=Mil Vezes Cantarei
TTITLE3=Abre o Coração Pra Mim
TTITLE4=De Barretos à Nashville
TTITLE5=Diga Que Ainda Me Ama
TTITLE6=Cortina Do Espaço
TTITLE7=Céu De Setembro
TTITLE8=O Que É Que Ela Tem
TTITLE9=Ao Lado De Deus
TTITLE10=Ela É Demais
TTITLE11=Nós Somos Dois Sem Vergonha
TTITLE12=Laços Quebrados
TTITLE13=Ei Flor
EXTD=
EXTT0=
EXTT1=
EXTT2=
EXTT3=
EXTT4=
EXTT5=
EXTT6=
EXTT7=
EXTT8=
EXTT9=
EXTT10=
EXTT11=
EXTT12=
EXTT13=
PLAYORDER=
